<svg width="18" height="19" viewBox="0 0 18 19" fill="none" xmlns="http://www.w3.org/2000/svg">
<g clip-path="url(#clip0_1_499)">
<path d="M5.23059 2.38086V3.11914H3.71887C3.41418 3.11914 3.12415 3.17773 2.84875 3.29492C2.57336 3.41211 2.33606 3.57617 2.13684 3.78711C1.93762 3.98633 1.77649 4.22363 1.65344 4.49902C1.5304 4.77441 1.46887 5.06445 1.46887 5.36914V15.8809C1.46887 16.1855 1.52747 16.4756 1.64465 16.751C1.76184 17.0264 1.9259 17.2637 2.13684 17.4629C2.33606 17.6621 2.57336 17.8232 2.84875 17.9463C3.12415 18.0693 3.41418 18.1309 3.71887 18.1309H14.2306C14.5353 18.1309 14.8253 18.0723 15.1007 17.9551C15.3761 17.8379 15.6134 17.6738 15.8126 17.4629C16.0118 17.2637 16.173 17.0264 16.296 16.751C16.4191 16.4756 16.4806 16.1855 16.4806 15.8809V5.36914C16.4806 5.06445 16.422 4.77441 16.3048 4.49902C16.1876 4.22363 16.0236 3.98633 15.8126 3.78711C15.6134 3.58789 15.3761 3.42676 15.1007 3.30371C14.8253 3.18066 14.5353 3.11914 14.2306 3.11914H12.7189V2.38086C12.7189 2.16992 12.6456 1.99121 12.4991 1.84473C12.3527 1.69824 12.1798 1.625 11.9806 1.625C11.7697 1.625 11.5909 1.69824 11.4445 1.84473C11.298 1.99121 11.2247 2.16992 11.2247 2.38086V3.11914H6.72473V2.38086C6.72473 2.16992 6.65149 1.99121 6.505 1.84473C6.35852 1.69824 6.17981 1.625 5.96887 1.625C5.76965 1.625 5.5968 1.69824 5.45032 1.84473C5.30383 1.99121 5.23059 2.16992 5.23059 2.38086ZM14.9689 7.61914H2.98059V5.36914C2.98059 5.27539 2.99817 5.18164 3.03333 5.08789C3.06848 4.99414 3.12122 4.91211 3.19153 4.8418C3.26184 4.77148 3.34094 4.71875 3.42883 4.68359C3.51672 4.64844 3.6134 4.63086 3.71887 4.63086H5.23059V5.36914C5.23059 5.58008 5.30383 5.75879 5.45032 5.90527C5.5968 6.05176 5.76965 6.125 5.96887 6.125C6.17981 6.125 6.35852 6.05176 6.505 5.90527C6.65149 5.75879 6.72473 5.58008 6.72473 5.36914V4.63086H11.2247V5.36914C11.2247 5.58008 11.298 5.75879 11.4445 5.90527C11.5909 6.05176 11.7697 6.125 11.9806 6.125C12.1798 6.125 12.3527 6.05176 12.4991 5.90527C12.6456 5.75879 12.7189 5.58008 12.7189 5.36914V4.63086H14.2306C14.3243 4.63086 14.4181 4.64844 14.5118 4.68359C14.6056 4.71875 14.6876 4.77148 14.7579 4.8418C14.8282 4.91211 14.881 4.99414 14.9161 5.08789C14.9513 5.18164 14.9689 5.27539 14.9689 5.36914V7.61914ZM2.98059 9.13086H14.9689V15.8809C14.9689 15.9746 14.9513 16.0684 14.9161 16.1621C14.881 16.2559 14.8282 16.3379 14.7579 16.4082C14.6876 16.4785 14.6085 16.5312 14.5206 16.5664C14.4327 16.6016 14.3361 16.6191 14.2306 16.6191H3.71887C3.62512 16.6191 3.53137 16.6016 3.43762 16.5664C3.34387 16.5312 3.26184 16.4785 3.19153 16.4082C3.12122 16.3379 3.06848 16.2559 3.03333 16.1621C2.99817 16.0684 2.98059 15.9746 2.98059 15.8809V9.13086Z" fill="#707070"/>
</g>
<defs>
<clipPath id="clip0_1_499">
<rect width="18" height="18" fill="white" transform="matrix(1 0 0 -1 0 18.5)"/>
</clipPath>
</defs>
</svg>
