<svg width="23" height="23" viewBox="0 0 23 23" fill="none" xmlns="http://www.w3.org/2000/svg">
<path d="M21.3235 1.68283C20.6071 0.966506 19.6355 0.564087 18.6224 0.564087C17.6093 0.564087 16.6376 0.966506 15.9212 1.68283L2.41104 15.1953C2.01705 15.5891 1.74522 16.0883 1.62823 16.6328L0.586821 21.4922C0.559357 21.6198 0.564311 21.7523 0.601229 21.8775C0.638146 22.0027 0.705852 22.1167 0.798159 22.209C0.890466 22.3013 1.00443 22.369 1.12964 22.4059C1.25486 22.4428 1.38733 22.4478 1.51495 22.4203L6.37432 21.3789C6.9189 21.2619 7.41808 20.9901 7.81182 20.5961L21.3235 7.0844C22.0396 6.368 22.4419 5.39654 22.4419 4.38361C22.4419 3.37069 22.0396 2.39923 21.3235 1.68283ZM17.0267 2.78752C17.4538 2.38354 18.0218 2.16213 18.6097 2.17037C19.1975 2.17861 19.759 2.41585 20.1747 2.83164C20.5904 3.24743 20.8275 3.80898 20.8356 4.39687C20.8437 4.98476 20.6222 5.55263 20.2181 5.97971L19.5149 6.68283L16.3228 3.49143L17.0267 2.78752ZM15.2173 4.59611L18.4095 7.7883L6.70791 19.4922C6.52684 19.6732 6.29732 19.798 6.04698 19.8516L2.36651 20.6406L3.15557 16.961C3.20916 16.7106 3.33396 16.4811 3.51495 16.3L15.2173 4.59611Z" fill="#848484"/>
</svg>
