<svg width="23" height="23" viewBox="0 0 23 23" fill="none" xmlns="http://www.w3.org/2000/svg">
<g clip-path="url(#clip0_1_475)">
<path d="M16.9902 1.98249C16.4308 1.98249 15.8923 2.08745 15.3748 2.29735C14.8574 2.50726 14.3784 2.78713 13.9378 3.13697C13.4973 3.48681 13.1022 3.88563 12.7525 4.33343C12.4029 4.79522 12.1162 5.26401 11.8924 5.73979C11.6687 5.26401 11.382 4.79522 11.0323 4.33343C10.6827 3.88563 10.2876 3.48681 9.84703 3.13697C9.40648 2.78713 8.92748 2.50726 8.41001 2.29735C7.89254 2.08745 7.35409 1.98249 6.79467 1.98249C6.01148 1.98249 5.27723 2.12943 4.59194 2.42329C3.90664 2.71716 3.30876 3.11948 2.79828 3.63025C2.28781 4.14102 1.88572 4.73924 1.59202 5.42493C1.29832 6.11062 1.15147 6.84529 1.15147 7.62893C1.15147 9.21022 1.50811 10.5466 2.22137 11.6381C2.93464 12.7436 3.82622 13.7931 4.89612 14.7867C5.96602 15.7802 7.12333 16.8228 8.36805 17.9143C9.62676 18.9918 10.8015 20.3142 11.8924 21.8815C12.9274 20.3282 14.0672 18.9988 15.3119 17.8933C16.5566 16.7878 17.7209 15.7313 18.8048 14.7237C19.8887 13.7162 20.8013 12.6666 21.5425 11.5751C22.2698 10.4696 22.6334 9.15424 22.6334 7.62893C22.6334 6.84529 22.4865 6.11062 22.1928 5.42493C21.8991 4.73924 21.497 4.14102 20.9866 3.63025C20.4761 3.11948 19.8782 2.71716 19.1929 2.42329C18.5076 2.12943 17.7734 1.98249 16.9902 1.98249Z" fill="#C4C3C3"/>
</g>
<defs>
<clipPath id="clip0_1_475">
<rect width="22" height="21.4943" fill="white" transform="matrix(1 0 0 -1 0.892273 22.1333)"/>
</clipPath>
</defs>
</svg>
