<svg width="48" height="48" viewBox="0 0 48 48" fill="none" xmlns="http://www.w3.org/2000/svg">
<circle cx="24.3092" cy="23.9919" r="23.5" fill="#48A74C"/>
<path d="M34.5221 31.7869C34.8912 32.197 34.8912 32.8123 34.4811 33.1814L33.3326 34.3298C32.9635 34.74 32.3483 34.74 31.9381 34.3298L27.8776 30.2693C27.6725 30.0642 27.5905 29.8181 27.5905 29.572V28.8748C26.1139 30.0232 24.3092 30.6794 22.3405 30.6794C17.6237 30.6794 13.8092 26.865 13.8092 22.1482C13.8092 17.4724 17.6237 13.6169 22.3405 13.6169C27.0162 13.6169 30.8717 17.4724 30.8717 22.1482C30.8717 24.158 30.1744 25.9626 29.067 27.3982H29.7233C29.9694 27.3982 30.2155 27.5212 30.4205 27.6853L34.5221 31.7869ZM22.3405 27.3982C25.2115 27.3982 27.5905 25.0603 27.5905 22.1482C27.5905 19.2771 25.2115 16.8982 22.3405 16.8982C19.4283 16.8982 17.0905 19.2771 17.0905 22.1482C17.0905 25.0603 19.4283 27.3982 22.3405 27.3982Z" fill="white"/>
</svg>
