<svg width="25" height="17" viewBox="0 0 25 17" fill="none" xmlns="http://www.w3.org/2000/svg">
<path d="M23.2214 8.39289C21.8077 6.19795 20.0359 4.5564 17.9061 3.46823C18.4734 4.43549 18.7571 5.48181 18.7571 6.60718C18.7571 8.32779 18.1456 9.79961 16.9225 11.0226C15.6995 12.2457 14.2277 12.8572 12.5071 12.8572C10.7865 12.8572 9.31465 12.2457 8.09162 11.0226C6.86859 9.79961 6.25708 8.32779 6.25708 6.60718C6.25708 5.48181 6.54075 4.43549 7.10808 3.46823C4.97825 4.5564 3.20648 6.19795 1.79279 8.39289C3.02977 10.2995 4.58065 11.8178 6.44542 12.9479C8.31019 14.0779 10.3307 14.6429 12.5071 14.6429C14.6834 14.6429 16.704 14.0779 18.5687 12.9479C20.4335 11.8178 21.9844 10.2995 23.2214 8.39289ZM13.1767 3.03575C13.1767 2.84974 13.1116 2.69163 12.9814 2.56142C12.8512 2.43121 12.6931 2.36611 12.5071 2.36611C11.3445 2.36611 10.347 2.78231 9.51461 3.61471C8.68221 4.44711 8.26601 5.4446 8.26601 6.60718C8.26601 6.79319 8.33111 6.9513 8.46132 7.08151C8.59153 7.21172 8.74964 7.27682 8.93565 7.27682C9.12166 7.27682 9.27977 7.21172 9.40998 7.08151C9.54019 6.9513 9.60529 6.79319 9.60529 6.60718C9.60529 5.80733 9.88896 5.12373 10.4563 4.5564C11.0236 3.98906 11.7072 3.70539 12.5071 3.70539C12.6931 3.70539 12.8512 3.64029 12.9814 3.51008C13.1116 3.37987 13.1767 3.22176 13.1767 3.03575ZM25.0071 8.39289C25.0071 8.70911 24.9141 9.02998 24.7281 9.3555C23.426 11.4946 21.6751 13.2083 19.4756 14.4964C17.276 15.7845 14.9531 16.4286 12.5071 16.4286C10.061 16.4286 7.7382 15.7822 5.53861 14.4894C3.33902 13.1966 1.58818 11.4853 0.286098 9.3555C0.100086 9.02998 0.00708008 8.70911 0.00708008 8.39289C0.00708008 8.07667 0.100086 7.7558 0.286098 7.43028C1.58818 5.30044 3.33902 3.58913 5.53861 2.29635C7.7382 1.00357 10.061 0.357178 12.5071 0.357178C14.9531 0.357178 17.276 1.00357 19.4756 2.29635C21.6751 3.58913 23.426 5.30044 24.7281 7.43028C24.9141 7.7558 25.0071 8.07667 25.0071 8.39289Z" fill="#848484"/>
</svg>
